# xmcd
#
# Track frame offsets: 
#        150
#        23067
#        52922
#        75585
#        104792
#        138890
#
# Disc length: 2179 seconds
#
# Revision: 2
# Processed by: cddbd v1.5.2PL0 Copyright (c) Steve Scherf et al.
# Submitted via: ExactAudioCopyFreeDBPlugin 1.0
#
DISCID=43088106
DTITLE=RAM RIDER - ユメデアエルヨ
DYEAR=2005
DGENRE=JPop
TTITLE0=ユメデアエルヨ
TTITLE1=FEELS GONNA FEEL -R800 mix-
TTITLE2=SWEET DANCE -bitter sweet dance mix-
TTITLE3=MUSIC -SAMBA DE MUSIC-
TTITLE4=ユメデアエルヨ -master mix without vocal-
TTITLE5=「ユメデアエルヨ」MUSIC VIDEO -radio edit-
EXTD=
EXTT0=
EXTT1=
EXTT2=
EXTT3=
EXTT4=
EXTT5=
PLAYORDER=
